<svg width="51" height="51" viewBox="0 0 51 51" fill="none" xmlns="http://www.w3.org/2000/svg">
<path d="M51 34V51H34C31.0188 50.9969 28.0909 50.21 25.5099 48.7181C22.9289 47.2262 20.7856 45.0818 19.295 42.5C20.897 42.4885 22.4935 42.3119 24.0592 41.973C25.2517 43.464 26.7644 44.6676 28.4852 45.4945C30.206 46.3214 32.0908 46.7505 34 46.75H46.75V34C46.7495 32.0901 46.3191 30.2049 45.4907 28.484C44.6622 26.7631 43.4571 25.2508 41.9645 24.0592C42.3063 22.4938 42.4857 20.8973 42.5 19.295C45.0818 20.7856 47.2262 22.9289 48.7181 25.5099C50.21 28.0909 50.9969 31.0188 51 34ZM38.25 19.125C38.25 14.0527 36.2351 9.18822 32.6484 5.60158C29.0618 2.01495 24.1973 0 19.125 0C14.0527 0 9.18822 2.01495 5.60158 5.60158C2.01495 9.18822 0 14.0527 0 19.125L0 38.25H19.125C24.1955 38.2444 29.0568 36.2276 32.6422 32.6422C36.2276 29.0568 38.2444 24.1955 38.25 19.125ZM4.25 19.125C4.25 16.183 5.1224 13.3071 6.75689 10.8609C8.39138 8.41471 10.7145 6.50815 13.4326 5.38229C16.1506 4.25644 19.1415 3.96186 22.027 4.53582C24.9124 5.10977 27.5629 6.52648 29.6432 8.60679C31.7235 10.6871 33.1402 13.3376 33.7142 16.223C34.2881 19.1085 33.9936 22.0994 32.8677 24.8174C31.7419 27.5355 29.8353 29.8586 27.3891 31.4931C24.9429 33.1276 22.067 34 19.125 34H4.25V19.125Z" fill="#00A699"/>
</svg>
