<svg width="41" height="51" viewBox="0 0 41 51" fill="none" xmlns="http://www.w3.org/2000/svg">
<path d="M8.875 25.5H19.5V29.75H8.875V25.5ZM30.125 17H8.875V21.25H30.125V17ZM30.125 8.5H8.875V12.75H30.125V8.5ZM36.5 41.3185V51L32.25 46.75L28 51V41.3185C26.3794 40.3874 25.1121 38.9464 24.3956 37.2201C23.6791 35.4938 23.5536 33.5791 24.0386 31.774C24.5235 29.9689 25.5918 28.3749 27.077 27.2401C28.5622 26.1053 30.3809 25.4935 32.25 25.5C32.9683 25.509 33.6826 25.6104 34.375 25.8018V6.375C34.375 5.81141 34.1511 5.27091 33.7526 4.8724C33.3541 4.47388 32.8136 4.25 32.25 4.25H6.75C6.18641 4.25 5.64591 4.47388 5.2474 4.8724C4.84888 5.27091 4.625 5.81141 4.625 6.375V42.5H23.75V46.75H0.375V6.375C0.375 4.68425 1.04665 3.06274 2.24219 1.86719C3.43774 0.67165 5.05925 0 6.75 0L32.25 0C33.9408 0 35.5623 0.67165 36.7578 1.86719C37.9534 3.06274 38.625 4.68425 38.625 6.375V28.4368C39.4574 29.3715 40.0702 30.4806 40.4185 31.6829C40.7669 32.8851 40.8419 34.15 40.6382 35.385C40.4345 36.62 39.9571 37.7938 39.2411 38.8204C38.5251 39.8471 37.5885 40.7006 36.5 41.3185ZM36.5 34C36.5 33.1594 36.2507 32.3377 35.7837 31.6388C35.3167 30.9399 34.653 30.3952 33.8764 30.0735C33.0998 29.7518 32.2453 29.6677 31.4209 29.8317C30.5964 29.9956 29.8392 30.4004 29.2448 30.9948C28.6504 31.5892 28.2456 32.3464 28.0817 33.1709C27.9177 33.9953 28.0018 34.8498 28.3235 35.6264C28.6452 36.403 29.1899 37.0667 29.8888 37.5337C30.5877 38.0007 31.4094 38.25 32.25 38.25C33.3772 38.25 34.4582 37.8022 35.2552 37.0052C36.0522 36.2082 36.5 35.1272 36.5 34Z" fill="#00A699"/>
</svg>
