<svg width="51" height="51" viewBox="0 0 51 51" fill="none" xmlns="http://www.w3.org/2000/svg">
<g clip-path="url(#clip0_1093_6578)">
<path d="M33.3635 15.1602L29.4323 17.4255C28.3493 16.3343 26.9907 15.5573 25.501 15.1772V10.6255H21.251V15.1772C19.7614 15.5573 18.4028 16.3343 17.3198 17.4255L13.3885 15.1602L11.2635 18.8407L15.2182 21.1209C15.0023 21.8534 14.8872 22.6119 14.876 23.3755C14.8872 24.1391 15.0023 24.8976 15.2182 25.6301L11.2635 27.9102L13.3885 31.5907L17.3198 29.3255C18.4028 30.4166 19.7614 31.1936 21.251 31.5737V36.1255H25.501V31.5737C26.9907 31.1936 28.3493 30.4166 29.4323 29.3255L33.3635 31.5907L35.4885 27.9102L31.5424 25.6301C31.7554 24.8972 31.8676 24.1387 31.876 23.3755C31.8649 22.6119 31.7498 21.8534 31.5339 21.1209L35.4885 18.8407L33.3635 15.1602ZM23.376 27.6255C22.5355 27.6255 21.7138 27.3762 21.0149 26.9092C20.316 26.4422 19.7712 25.7785 19.4496 25.0019C19.1279 24.2253 19.0437 23.3708 19.2077 22.5463C19.3717 21.7219 19.7765 20.9646 20.3708 20.3703C20.9652 19.7759 21.7225 19.3711 22.5469 19.2071C23.3713 19.0432 24.2259 19.1273 25.0024 19.449C25.779 19.7707 26.4428 20.3154 26.9098 21.0143C27.3768 21.7132 27.626 22.5349 27.626 23.3755C27.626 24.5026 27.1783 25.5837 26.3812 26.3807C25.5842 27.1777 24.5032 27.6255 23.376 27.6255ZM49.454 23.656C47.5508 18.6333 45.0752 13.8467 42.076 9.39085C39.5848 6.01508 36.2234 3.37935 32.3508 1.76514C28.4783 0.150927 24.24 -0.381151 20.0887 0.225727C15.9699 0.811318 12.082 2.48554 8.82632 5.07558C5.57068 7.66562 3.06526 11.0776 1.56871 14.9593C0.0721549 18.8411 -0.36131 23.0519 0.313061 27.1571C0.987432 31.2623 2.7452 35.1131 5.40492 38.3121C6.03192 39.0651 6.3755 40.0139 6.37604 40.9939V51.0005H34.001V44.6255H38.7759C40.3206 44.6219 41.8118 44.059 42.9736 43.041C44.1354 42.0229 44.8892 40.6186 45.0957 39.0877L46.0498 31.8755H51.001V27.175C51.001 27.175 49.9088 24.6972 49.454 23.656ZM42.3247 27.6255L40.8839 38.5289C40.8164 39.04 40.5653 39.5092 40.1775 39.8489C39.7896 40.1886 39.2915 40.3758 38.7759 40.3755H29.751V46.7505H10.626V40.9939C10.6249 39.0203 9.93331 37.1093 8.67104 35.5921C7.02568 33.6289 5.79173 31.355 5.04254 28.9055C4.29335 26.456 4.04419 23.8809 4.30988 21.3332C4.57557 18.7855 5.35068 16.3172 6.58915 14.0749C7.82762 11.8327 9.50418 9.86231 11.5192 8.28084C13.5342 6.69937 15.8466 5.53908 18.3189 4.86894C20.7912 4.1988 23.373 4.03247 25.9109 4.37983C28.4487 4.7272 30.8908 5.58118 33.0921 6.89102C35.2934 8.20086 37.209 9.93983 38.7249 12.0046C41.4781 16.1961 43.7694 20.6734 45.5589 25.3581C45.8904 26.1167 46.2219 26.8775 46.5534 27.6297L42.3247 27.6255Z" fill="#00A699"/>
</g>
<defs>
<clipPath id="clip0_1093_6578">
<rect width="51" height="51" fill="white"/>
</clipPath>
</defs>
</svg>
