<svg width="52" height="51" viewBox="0 0 52 51" fill="none" xmlns="http://www.w3.org/2000/svg">
<g clip-path="url(#clip0_1093_6583)">
<path d="M47.3703 11.1134L31.7005 3.64827C28.2513 1.58795 23.9581 1.55139 20.4742 3.55265L4.62809 11.1134C4.56862 11.1432 4.50697 11.1751 4.44959 11.209C0.689139 13.3592 -0.616342 18.1507 1.53383 21.9112C2.26267 23.186 3.33476 24.2305 4.62809 24.9259L8.99925 27.0085V37.4209C9.00184 42.077 12.0315 46.1904 16.4771 47.5742C19.5709 48.4692 22.7788 48.9074 25.9993 48.8747C29.2193 48.9108 32.4272 48.4763 35.5214 47.5849C39.9671 46.2012 42.9967 42.0876 42.9993 37.4316V27.0042L47.2493 24.9726V42.4996C47.2493 43.6732 48.2007 44.6246 49.3743 44.6246C50.5479 44.6246 51.4993 43.6732 51.4993 42.4996V16.9996C51.5134 14.5043 49.5432 12.1991 47.3703 11.1134ZM38.7492 37.4316C38.7503 40.2166 36.9434 42.68 34.2867 43.5154C31.5926 44.2852 28.8009 44.6588 25.9992 44.6247C23.1975 44.6588 20.4057 44.2852 17.7117 43.5154C15.055 42.6799 13.2481 40.2166 13.2492 37.4316V29.0336L20.2978 32.3912C22.037 33.4239 24.0233 33.9666 26.046 33.9615C27.9713 33.9751 29.8641 33.4654 31.5221 32.4868L38.7492 29.0335V37.4316ZM45.5492 21.0903L29.5225 28.7403C27.2878 30.0415 24.518 30.0046 22.3187 28.6446L6.63831 21.1859C4.89046 20.2434 4.23762 18.0624 5.18013 16.3147C5.49888 15.7236 5.9768 15.2336 6.55972 14.9001L22.4866 7.29268C24.7219 5.99437 27.4902 6.03113 29.6903 7.3883L45.3601 14.8534C46.5124 15.4933 47.2334 16.7017 47.2492 18.0197C47.2512 19.2682 46.6084 20.4293 45.5492 21.0903Z" fill="#00A699"/>
</g>
<defs>
<clipPath id="clip0_1093_6583">
<rect width="51" height="51" fill="white" transform="translate(0.5)"/>
</clipPath>
</defs>
</svg>
