<svg width="51" height="51" viewBox="0 0 51 51" fill="none" xmlns="http://www.w3.org/2000/svg">
<g clip-path="url(#clip0_1093_6556)">
<path d="M17.0008 42.8165V50.9998H34.0008V43.1692C33.9591 41.3578 34.3037 39.5584 35.0116 37.8905C35.7195 36.2226 36.7744 34.7247 38.1063 33.4962C41.013 30.9484 43.0796 27.5796 44.0335 23.8338C44.9874 20.088 44.7839 16.1411 43.4498 12.5133C42.1157 8.88545 39.7137 5.74701 36.5603 3.51162C33.407 1.27623 29.6502 0.048809 25.7853 -0.00885696C21.9204 -0.066523 18.1288 1.04827 14.9101 3.18859C11.6914 5.32891 9.19682 8.39428 7.75511 11.9807C6.3134 15.5671 5.99225 19.5062 6.83398 23.2787C7.67571 27.0513 9.64081 30.4803 12.4703 33.1137C13.8562 34.3291 14.9745 35.8191 15.7544 37.4893C16.5343 39.1596 16.9587 40.9736 17.0008 42.8165ZM29.7508 46.7498H21.2508V42.8165C21.2508 42.7102 21.2359 42.604 21.2338 42.4998H29.7848C29.7848 42.723 29.7508 42.944 29.7508 43.1692V46.7498ZM10.7533 17.1592C11.0692 14.7753 11.9583 12.5036 13.3445 10.5386C14.7307 8.57366 16.5726 6.97406 18.7125 5.87688C20.8523 4.7797 23.2262 4.21766 25.6308 4.23891C28.0354 4.26016 30.3991 4.86407 32.5191 5.9989C34.6392 7.13373 36.4526 8.76564 37.8039 10.7548C39.1551 12.744 40.004 15.0311 40.2777 17.4201C40.5514 19.8092 40.2418 22.2291 39.3755 24.4723C38.5092 26.7155 37.1119 28.7153 35.3034 30.3002C32.9383 32.4179 31.2445 35.1813 30.4308 38.2498H27.6258V22.9838C28.8645 22.5459 29.9376 21.736 30.6983 20.6648C31.4591 19.5937 31.8703 18.3136 31.8758 16.9998H27.6258C27.6258 17.5634 27.4019 18.1039 27.0034 18.5024C26.6049 18.901 26.0644 19.1248 25.5008 19.1248C24.9372 19.1248 24.3967 18.901 23.9982 18.5024C23.5997 18.1039 23.3758 17.5634 23.3758 16.9998H19.1258C19.1312 18.3136 19.5424 19.5937 20.3032 20.6648C21.064 21.736 22.1371 22.5459 23.3758 22.9838V38.2498H20.5665C19.6081 35.0819 17.8106 32.2322 15.3645 30.0027C13.621 28.3895 12.2918 26.3802 11.4891 24.1446C10.6865 21.909 10.4341 19.513 10.7533 17.1592Z" fill="#00A699"/>
</g>
<defs>
<clipPath id="clip0_1093_6556">
<rect width="51" height="51" fill="white"/>
</clipPath>
</defs>
</svg>
