<svg width="227" height="335" viewBox="0 0 227 335" fill="none" xmlns="http://www.w3.org/2000/svg">
<path d="M106.84 335C47.8368 335 0 287.163 0 228.16V123.449C0 64.4465 47.8368 16.6097 106.84 16.6097C165.843 16.6097 213.679 64.4465 213.679 123.449V228.16C213.679 287.163 165.843 335 106.84 335Z" fill="white"/>
<path d="M117.672 320.39C58.6688 320.39 10.832 272.553 10.832 213.551V108.84C10.832 49.8368 58.6688 2 117.672 2C176.675 2 224.511 49.8368 224.511 108.84V213.551C224.511 272.553 176.675 320.39 117.672 320.39Z" stroke="black" stroke-width="3.36492" stroke-miterlimit="10" stroke-linecap="round"/>
<g clip-path="url(#clip0_1309_5757)">
<path d="M127.084 97.8447L116.023 92.5752C113.589 91.1209 110.558 91.0951 108.099 92.5077L96.9134 97.8447C96.8714 97.8657 96.8279 97.8882 96.7874 97.9122C94.1329 99.43 93.2114 102.812 94.7292 105.467C95.2437 106.367 96.0004 107.104 96.9134 107.595L99.9989 109.065V116.415C100.001 119.701 102.139 122.605 105.277 123.582C107.461 124.214 109.726 124.523 111.999 124.5C114.272 124.525 116.536 124.219 118.72 123.589C121.859 122.613 123.997 119.709 123.999 116.422V109.062L126.999 107.628V120C126.999 120.828 127.671 121.5 128.499 121.5C129.327 121.5 129.999 120.828 129.999 120V102C130.009 100.238 128.618 98.6111 127.084 97.8447ZM120.999 116.422C121 118.388 119.724 120.127 117.849 120.717C115.947 121.26 113.977 121.524 111.999 121.5C110.021 121.524 108.051 121.26 106.149 120.717C104.274 120.127 102.998 118.388 102.999 116.422V110.494L107.974 112.864C109.202 113.593 110.604 113.976 112.032 113.973C113.391 113.982 114.727 113.623 115.897 112.932L120.999 110.494V116.422ZM125.799 104.887L114.486 110.287C112.908 111.206 110.953 111.18 109.401 110.22L98.3323 104.955C97.0986 104.289 96.6377 102.75 97.303 101.516C97.528 101.099 97.8654 100.753 98.2769 100.518L109.519 95.1477C111.097 94.2313 113.051 94.2572 114.604 95.2152L125.665 100.485C126.479 100.936 126.988 101.789 126.999 102.72C127 103.601 126.547 104.421 125.799 104.887Z" fill="black"/>
</g>
<path d="M100.364 195V191.704L108.012 183.832C109.719 182.04 110.572 180.547 110.572 179.352C110.572 178.477 110.295 177.773 109.74 177.24C109.207 176.707 108.513 176.44 107.66 176.44C105.975 176.44 104.727 177.315 103.916 179.064L100.204 176.888C100.908 175.352 101.921 174.179 103.244 173.368C104.567 172.557 106.017 172.152 107.596 172.152C109.623 172.152 111.361 172.792 112.812 174.072C114.263 175.331 114.988 177.037 114.988 179.192C114.988 181.517 113.761 183.907 111.308 186.36L106.924 190.744H115.34V195H100.364ZM65.7196 235.448C62.349 235.448 59.565 234.328 57.3676 232.088C55.1703 229.848 54.0716 227.085 54.0716 223.8C54.0716 220.493 55.1703 217.731 57.3676 215.512C59.565 213.272 62.349 212.152 65.7196 212.152C67.7463 212.152 69.613 212.632 71.3196 213.592C73.0476 214.531 74.3916 215.811 75.3516 217.432L71.5436 219.64C70.989 218.637 70.1996 217.859 69.1756 217.304C68.1516 216.728 66.9996 216.44 65.7196 216.44C63.5436 216.44 61.7836 217.123 60.4396 218.488C59.117 219.853 58.4556 221.624 58.4556 223.8C58.4556 225.955 59.117 227.715 60.4396 229.08C61.7836 230.445 63.5436 231.128 65.7196 231.128C66.9996 231.128 68.1516 230.851 69.1756 230.296C70.221 229.72 71.0103 228.941 71.5436 227.96L75.3516 230.168C74.3916 231.789 73.0583 233.08 71.3516 234.04C69.645 234.979 67.7676 235.448 65.7196 235.448ZM91.5981 233.016C89.9555 234.637 87.9501 235.448 85.5821 235.448C83.2141 235.448 81.2088 234.637 79.5661 233.016C77.9448 231.373 77.1341 229.368 77.1341 227C77.1341 224.632 77.9448 222.637 79.5661 221.016C81.2088 219.373 83.2141 218.552 85.5821 218.552C87.9501 218.552 89.9555 219.373 91.5981 221.016C93.2408 222.637 94.0621 224.632 94.0621 227C94.0621 229.368 93.2408 231.373 91.5981 233.016ZM82.4781 230.168C83.3101 231 84.3448 231.416 85.5821 231.416C86.8195 231.416 87.8541 231 88.6861 230.168C89.5181 229.336 89.9341 228.28 89.9341 227C89.9341 225.72 89.5181 224.664 88.6861 223.832C87.8541 223 86.8195 222.584 85.5821 222.584C84.3448 222.584 83.3101 223 82.4781 223.832C81.6675 224.664 81.2621 225.72 81.2621 227C81.2621 228.28 81.6675 229.336 82.4781 230.168ZM105.862 218.552C107.611 218.552 109.051 219.139 110.182 220.312C111.334 221.485 111.91 223.107 111.91 225.176V235H107.782V225.688C107.782 224.621 107.494 223.811 106.918 223.256C106.342 222.68 105.574 222.392 104.614 222.392C103.547 222.392 102.694 222.723 102.054 223.384C101.414 224.045 101.094 225.037 101.094 226.36V235H96.9661V212.6H101.094V220.792C102.097 219.299 103.686 218.552 105.862 218.552ZM129.067 233.016C127.424 234.637 125.419 235.448 123.051 235.448C120.683 235.448 118.678 234.637 117.035 233.016C115.414 231.373 114.603 229.368 114.603 227C114.603 224.632 115.414 222.637 117.035 221.016C118.678 219.373 120.683 218.552 123.051 218.552C125.419 218.552 127.424 219.373 129.067 221.016C130.71 222.637 131.531 224.632 131.531 227C131.531 229.368 130.71 231.373 129.067 233.016ZM119.947 230.168C120.779 231 121.814 231.416 123.051 231.416C124.288 231.416 125.323 231 126.155 230.168C126.987 229.336 127.403 228.28 127.403 227C127.403 225.72 126.987 224.664 126.155 223.832C125.323 223 124.288 222.584 123.051 222.584C121.814 222.584 120.779 223 119.947 223.832C119.136 224.664 118.731 225.72 118.731 227C118.731 228.28 119.136 229.336 119.947 230.168ZM138.563 221.752C138.947 220.728 139.576 219.96 140.451 219.448C141.347 218.936 142.339 218.68 143.427 218.68V223.288C142.168 223.139 141.038 223.395 140.035 224.056C139.054 224.717 138.563 225.816 138.563 227.352V235H134.435V219H138.563V221.752ZM155.431 222.968H151.815V229.624C151.815 230.179 151.953 230.584 152.231 230.84C152.508 231.096 152.913 231.245 153.447 231.288C153.98 231.309 154.641 231.299 155.431 231.256V235C152.593 235.32 150.588 235.053 149.415 234.2C148.263 233.347 147.687 231.821 147.687 229.624V222.968H144.903V219H147.687V215.768L151.815 214.52V219H155.431V222.968ZM161.805 223.544C161.805 223.971 162.083 224.323 162.637 224.6C163.213 224.856 163.907 225.091 164.717 225.304C165.528 225.496 166.339 225.752 167.149 226.072C167.96 226.371 168.643 226.883 169.197 227.608C169.773 228.333 170.061 229.24 170.061 230.328C170.061 231.971 169.443 233.24 168.205 234.136C166.989 235.011 165.464 235.448 163.629 235.448C160.344 235.448 158.104 234.179 156.909 231.64L160.493 229.624C160.963 231.011 162.008 231.704 163.629 231.704C165.101 231.704 165.837 231.245 165.837 230.328C165.837 229.901 165.549 229.56 164.973 229.304C164.419 229.027 163.736 228.781 162.925 228.568C162.115 228.355 161.304 228.088 160.493 227.768C159.683 227.448 158.989 226.947 158.413 226.264C157.859 225.56 157.581 224.685 157.581 223.64C157.581 222.061 158.157 220.824 159.309 219.928C160.483 219.011 161.933 218.552 163.661 218.552C164.963 218.552 166.147 218.851 167.213 219.448C168.28 220.024 169.123 220.856 169.741 221.944L166.221 223.864C165.709 222.776 164.856 222.232 163.661 222.232C163.128 222.232 162.68 222.349 162.317 222.584C161.976 222.819 161.805 223.139 161.805 223.544Z" fill="black"/>
<defs>
<clipPath id="clip0_1309_5757">
<rect width="36" height="36" fill="white" transform="translate(94 90)"/>
</clipPath>
</defs>
</svg>
