<svg width="22" height="12" viewBox="0 0 22 12" fill="none" xmlns="http://www.w3.org/2000/svg">
<path d="M21.0642 0.814973C20.9248 0.674381 20.7589 0.56279 20.5761 0.486637C20.3933 0.410484 20.1973 0.371277 19.9992 0.371277C19.8012 0.371277 19.6052 0.410484 19.4224 0.486637C19.2396 0.56279 19.0737 0.674381 18.9342 0.814973L12.0642 7.68496C11.9248 7.82555 11.7589 7.93714 11.5761 8.0133C11.3933 8.08945 11.1973 8.12866 10.9992 8.12866C10.8012 8.12866 10.6052 8.08945 10.4224 8.0133C10.2396 7.93714 10.0737 7.82555 9.93424 7.68496L3.06424 0.814973C2.92479 0.674381 2.75889 0.56279 2.5761 0.486637C2.39331 0.410484 2.19725 0.371277 1.99924 0.371277C1.80122 0.371277 1.60516 0.410484 1.42237 0.486637C1.23958 0.56279 1.07368 0.674381 0.934236 0.814973C0.654859 1.09602 0.498047 1.47619 0.498047 1.87247C0.498047 2.26875 0.654859 2.64893 0.934236 2.92997L7.81924 9.81496C8.66299 10.6577 9.80673 11.131 10.9992 11.131C12.1917 11.131 13.3355 10.6577 14.1792 9.81496L21.0642 2.92997C21.3436 2.64893 21.5004 2.26875 21.5004 1.87247C21.5004 1.47619 21.3436 1.09602 21.0642 0.814973Z" fill="black"/>
</svg>
