<svg width="301" height="101" viewBox="0 0 301 101" fill="none" xmlns="http://www.w3.org/2000/svg">
<path d="M126.458 36.911L126.187 36.491L123.022 38.533C122.688 38.748 122.318 38.85 121.949 38.85C121.296 38.85 120.66 38.53 120.28 37.942L120.044 37.577C119.829 37.243 119.727 36.873 119.727 36.504C119.727 35.851 120.047 35.215 120.635 34.835L123.8 32.793C124.134 32.578 124.504 32.476 124.873 32.476C125.526 32.476 126.162 32.796 126.542 33.384L126.778 33.749C126.993 34.083 127.095 34.453 127.095 34.822C127.095 35.475 126.775 36.111 126.187 36.491L126.458 36.911L126.729 37.331C127.613 36.761 128.096 35.8 128.095 34.822C128.095 34.268 127.94 33.706 127.618 33.207L127.382 32.842C126.812 31.958 125.851 31.475 124.873 31.476C124.319 31.476 123.757 31.631 123.258 31.953L120.093 33.995C119.209 34.565 118.726 35.526 118.727 36.504C118.727 37.058 118.882 37.62 119.204 38.119L119.44 38.484C120.01 39.368 120.971 39.851 121.949 39.85C122.503 39.85 123.065 39.695 123.564 39.373L126.729 37.331L126.458 36.911Z" fill="black"/>
<path d="M123.095 39.244L124.299 41.188L125.149 40.662L123.945 38.717" fill="black"/>
<path d="M126.035 37.424L127.239 39.368L128.089 38.842L126.886 36.897" fill="black"/>
<path d="M152.933 38.958L153.205 38.538L150.044 36.49C149.457 36.11 149.14 35.475 149.139 34.823C149.139 34.453 149.241 34.082 149.458 33.747L149.694 33.382C150.074 32.795 150.709 32.478 151.361 32.477C151.731 32.477 152.102 32.579 152.437 32.796L155.598 34.844C156.185 35.224 156.502 35.859 156.503 36.511C156.503 36.881 156.401 37.252 156.184 37.587L155.948 37.952C155.568 38.539 154.933 38.856 154.281 38.857C153.911 38.857 153.54 38.755 153.205 38.538L152.933 38.958L152.661 39.378C153.161 39.702 153.726 39.858 154.281 39.858C155.257 39.858 156.216 39.377 156.787 38.497L157.023 38.132C157.347 37.632 157.503 37.067 157.503 36.512C157.503 35.536 157.022 34.577 156.142 34.006L152.981 31.958C152.481 31.634 151.916 31.478 151.361 31.478C150.385 31.478 149.426 31.959 148.855 32.839L148.619 33.204C148.295 33.704 148.139 34.269 148.139 34.824C148.139 35.8 148.619 36.759 149.5 37.33L152.661 39.378L152.933 38.958Z" fill="black"/>
<path d="M149.426 36.848L148.146 38.744L148.975 39.303L150.255 37.407" fill="black"/>
<path d="M152.292 38.783L151.013 40.678L151.842 41.237L153.121 39.342" fill="black"/>
<path d="M142.791 33.727V33.227H132.538C132.035 33.227 131.629 32.819 131.628 32.317C131.628 31.814 132.036 31.408 132.538 31.407H142.791C143.294 31.407 143.7 31.815 143.701 32.317C143.701 32.82 143.293 33.226 142.791 33.227V34.227C143.846 34.227 144.701 33.372 144.701 32.317C144.701 31.262 143.846 30.407 142.791 30.407H132.538C131.483 30.407 130.628 31.262 130.628 32.317C130.628 33.372 131.483 34.227 132.538 34.227H142.791V33.727Z" fill="black"/>
<path d="M139.812 33.727V36.913H140.812V33.727" fill="black"/>
<path d="M135.09 33.727V36.913" stroke="black" stroke-miterlimit="10"/>
<path d="M116.183 58.209H116.683C116.683 52.334 119.063 47.02 122.912 43.17C126.762 39.32 132.076 36.941 137.951 36.941C143.826 36.941 149.14 39.321 152.99 43.17C156.84 47.02 159.219 52.334 159.219 58.209C159.219 64.084 156.839 69.398 152.99 73.248C149.14 77.098 143.826 79.477 137.951 79.477C132.076 79.477 126.762 77.097 122.912 73.248C119.062 69.398 116.683 64.084 116.683 58.209H115.683C115.683 70.508 125.653 80.477 137.951 80.477C150.25 80.477 160.219 70.507 160.219 58.209C160.219 45.91 150.249 35.941 137.951 35.941C125.652 35.941 115.683 45.911 115.683 58.209H116.183Z" fill="black"/>
<path d="M137.951 76.195C147.782 76.195 155.751 68.2256 155.751 58.395C155.751 48.5643 147.782 40.595 137.951 40.595C128.12 40.595 120.151 48.5643 120.151 58.395C120.151 68.2256 128.12 76.195 137.951 76.195Z" fill="black"/>
<path d="M50.641 32.42C58.0843 32.42 63.7567 34.1653 67.658 37.656C71.6107 41.1467 73.587 46.4853 73.587 53.672V56.29H43.095C43.095 59.216 43.7367 61.4233 45.02 62.912C46.3547 64.4007 48.4337 65.145 51.257 65.145C53.8237 65.145 55.6973 64.606 56.878 63.528C58.11 62.45 58.726 61.0127 58.726 59.216H73.587C73.587 64.144 71.7133 67.994 67.966 70.766C64.2187 73.538 58.7517 74.924 51.565 74.924C44.019 74.924 38.167 73.1787 34.009 69.688C29.851 66.146 27.772 60.8073 27.772 53.672C27.772 46.6907 29.7997 41.4033 33.855 37.81C37.9103 34.2167 43.5057 32.42 50.641 32.42ZM51.257 42.199C46.4317 42.199 43.7367 44.4833 43.172 49.052H58.11C58.11 46.9473 57.494 45.279 56.262 44.047C55.0813 42.815 53.413 42.199 51.257 42.199Z" fill="black"/>
<path d="M99.749 32.42C105.242 32.42 109.477 34.2167 112.454 37.81C115.431 41.4033 116.92 46.7163 116.92 53.749C116.92 60.7303 115.431 66.0177 112.454 69.611C109.477 73.153 105.242 74.924 99.749 74.924C95.0263 74.924 91.2277 73.384 88.353 70.304V89.169H73.03V33.344H85.504L86.813 39.119C89.7903 34.653 94.1023 32.42 99.749 32.42ZM94.975 43.739C92.7163 43.739 91.0223 44.5347 89.893 46.126C88.7637 47.7173 88.199 49.7963 88.199 52.363V54.904C88.199 57.4707 88.7637 59.5753 89.893 61.218C91.0223 62.8093 92.7163 63.605 94.975 63.605C99.3897 63.605 101.597 60.9613 101.597 55.674V51.593C101.597 46.357 99.3897 43.739 94.975 43.739Z" fill="black"/>
<path d="M182.582 35.6694C189.298 35.6694 194.722 37.1159 198.855 40.0088C203.039 42.8501 205.132 47.2154 205.132 53.1047H190.176C190.176 48.4553 187.645 46.1306 182.582 46.1306C177.519 46.1306 174.988 49.0493 174.988 54.8869V59.3039C174.988 65.0898 177.623 67.9827 182.892 67.9827C188.161 67.9827 190.796 65.6064 190.796 60.8537H205.132C205.132 66.7946 203.039 71.2115 198.855 74.1044C194.722 76.9974 189.298 78.4439 182.582 78.4439C175.401 78.4439 169.77 76.6358 165.689 73.0196C161.608 69.4034 159.567 64.0824 159.567 57.0566C159.567 50.0309 161.608 44.7099 165.689 41.0937C169.77 37.4775 175.401 35.6694 182.582 35.6694Z" fill="black"/>
<path d="M222.351 40.9868C224 39.338 225.932 38.0756 228.148 37.1996C230.364 36.2722 232.682 35.8084 235.104 35.8084C239.844 35.8084 243.4 37.1223 245.77 39.7502C248.14 42.3781 249.325 46.1653 249.325 51.1118V77.545H233.945V52.9668C233.945 51.2149 233.481 49.8237 232.553 48.7931C231.677 47.7111 230.415 47.17 228.766 47.17C226.86 47.17 225.314 47.7884 224.129 49.025C222.944 50.2616 222.351 51.7817 222.351 53.5851V77.545H206.97V21.5098H222.351V40.9868Z" fill="black"/>
<path d="M262.683 75.407C267.101 75.407 270.683 71.8253 270.683 67.407C270.683 62.9887 267.101 59.407 262.683 59.407C258.265 59.407 254.683 62.9887 254.683 67.407C254.683 71.8253 258.265 75.407 262.683 75.407Z" fill="#E9622B"/>
</svg>
