<svg width="25" height="24" viewBox="0 0 25 24" fill="none" xmlns="http://www.w3.org/2000/svg">
<g clip-path="url(#clip0_1307_5571)">
<path d="M7.5 12H12.5V14H7.5V12ZM17.5 8H7.5V10H17.5V8ZM17.5 4H7.5V6H17.5V4ZM20.5 19.444V24L18.5 22L16.5 24V19.444C15.7373 19.0058 15.141 18.3277 14.8038 17.5154C14.4666 16.703 14.4076 15.8019 14.6358 14.9525C14.864 14.103 15.3667 13.3529 16.0656 12.8189C16.7646 12.2849 17.6204 11.997 18.5 12C18.838 12.0042 19.1741 12.0519 19.5 12.142V3C19.5 2.73478 19.3946 2.48043 19.2071 2.29289C19.0196 2.10536 18.7652 2 18.5 2H6.5C6.23478 2 5.98043 2.10536 5.79289 2.29289C5.60536 2.48043 5.5 2.73478 5.5 3V20H14.5V22H3.5V3C3.5 2.20435 3.81607 1.44129 4.37868 0.87868C4.94129 0.31607 5.70435 0 6.5 0L18.5 0C19.2956 0 20.0587 0.31607 20.6213 0.87868C21.1839 1.44129 21.5 2.20435 21.5 3V13.382C21.8917 13.8219 22.1801 14.3438 22.344 14.9096C22.5079 15.4753 22.5433 16.0706 22.4474 16.6518C22.3515 17.2329 22.1269 17.7853 21.7899 18.2684C21.453 18.7516 21.0122 19.1532 20.5 19.444ZM20.5 16C20.5 15.6044 20.3827 15.2178 20.1629 14.8889C19.9432 14.56 19.6308 14.3036 19.2654 14.1522C18.8999 14.0009 18.4978 13.9613 18.1098 14.0384C17.7219 14.1156 17.3655 14.3061 17.0858 14.5858C16.8061 14.8655 16.6156 15.2219 16.5384 15.6098C16.4613 15.9978 16.5009 16.3999 16.6522 16.7654C16.8036 17.1308 17.06 17.4432 17.3889 17.6629C17.7178 17.8827 18.1044 18 18.5 18C19.0304 18 19.5391 17.7893 19.9142 17.4142C20.2893 17.0391 20.5 16.5304 20.5 16Z" fill="#00A699"/>
</g>
<defs>
<clipPath id="clip0_1307_5571">
<rect width="24" height="24" fill="white" transform="translate(0.5)"/>
</clipPath>
</defs>
</svg>
