<svg width="24" height="24" viewBox="0 0 24 24" fill="none" xmlns="http://www.w3.org/2000/svg">
<g clip-path="url(#clip0_1415_4088)">
<path d="M18 7.00081C18 7.19859 17.9414 7.39193 17.8315 7.55638C17.7216 7.72083 17.5654 7.849 17.3827 7.92469C17.2 8.00038 16.9989 8.02018 16.8049 7.9816C16.6109 7.94301 16.4327 7.84777 16.2929 7.70792C16.153 7.56807 16.0578 7.38988 16.0192 7.1959C15.9806 7.00192 16.0004 6.80085 16.0761 6.61813C16.1518 6.4354 16.28 6.27922 16.4444 6.16934C16.6089 6.05946 16.8022 6.00081 17 6.00081C17.2652 6.00081 17.5196 6.10617 17.7071 6.29371C17.8946 6.48124 18 6.7356 18 7.00081ZM14 9.00081C13.8022 9.00081 13.6089 9.05946 13.4444 9.16934C13.28 9.27922 13.1518 9.4354 13.0761 9.61813C13.0004 9.80085 12.9806 10.0019 13.0192 10.1959C13.0578 10.3899 13.153 10.5681 13.2929 10.7079C13.4327 10.8478 13.6109 10.943 13.8049 10.9816C13.9989 11.0202 14.2 11.0004 14.3827 10.9247C14.5654 10.849 14.7216 10.7208 14.8315 10.5564C14.9414 10.3919 15 10.1986 15 10.0008C15 9.7356 14.8946 9.48124 14.7071 9.29371C14.5196 9.10617 14.2652 9.00081 14 9.00081ZM11 12.0008C10.8022 12.0008 10.6089 12.0595 10.4444 12.1693C10.28 12.2792 10.1518 12.4354 10.0761 12.6181C10.0004 12.8009 9.98063 13.0019 10.0192 13.1959C10.0578 13.3899 10.153 13.5681 10.2929 13.7079C10.4327 13.8478 10.6109 13.943 10.8049 13.9816C10.9989 14.0202 11.2 14.0004 11.3827 13.9247C11.5654 13.849 11.7216 13.7208 11.8315 13.5564C11.9414 13.3919 12 13.1986 12 13.0008C12 12.7356 11.8946 12.4812 11.7071 12.2937C11.5196 12.1062 11.2652 12.0008 11 12.0008ZM23.352 0.648811C23.65 0.944105 23.8569 1.31883 23.9481 1.72837C24.0392 2.1379 24.0107 2.565 23.866 2.95881L23.791 3.16981C22.289 7.33781 20.848 11.3008 18 14.8208V15.0008C17.9956 16.7077 17.5961 18.3905 16.8327 19.9172C16.0694 21.4439 14.9629 22.7731 13.6 23.8008L13.332 24.0008H9V20.4148L7 18.4148L4.707 20.7078L3.293 19.2938L5.586 17.0008L3.586 15.0008H0V10.4408L0.2 10.1748C1.23794 8.83905 2.57487 7.76553 4.10328 7.04058C5.63168 6.31563 7.30889 5.95949 9 6.00081H9.18C12.7 3.15381 16.66 1.71281 20.826 0.211811L21.042 0.134811C21.4358 -0.00989512 21.8629 -0.0383807 22.2724 0.0527459C22.682 0.143873 23.0567 0.350772 23.352 0.648811ZM2 13.0008H3.419C4.39674 11.3142 5.52857 9.72171 6.8 8.24381C4.9212 8.63247 3.22934 9.64582 2 11.1188V13.0008ZM15.7 17.2548C14.2375 18.504 12.6643 19.6176 11 20.5818V22.0008H12.657C14.1507 20.7831 15.2167 19.1204 15.7 17.2548ZM21.937 2.06381C21.9104 2.03417 21.8751 2.01361 21.8362 2.005C21.7973 1.99639 21.7567 2.00017 21.72 2.01581L21.505 2.09381C16.661 3.83881 12.478 5.34681 8.876 8.94781C7.48687 10.4352 6.27047 12.075 5.25 13.8358L10.165 18.7518C11.9255 17.7304 13.5652 16.5137 15.053 15.1248C18.653 11.5248 20.163 7.33781 21.909 2.49181L21.985 2.28081C22.0005 2.24413 22.0042 2.20354 21.9956 2.16466C21.987 2.12578 21.9665 2.09054 21.937 2.06381Z" fill="#00A699"/>
</g>
<defs>
<clipPath id="clip0_1415_4088">
<rect width="24" height="24" fill="white"/>
</clipPath>
</defs>
</svg>
