<svg width="25" height="24" viewBox="0 0 25 24" fill="none" xmlns="http://www.w3.org/2000/svg">
<g clip-path="url(#clip0_1307_5580)">
<path d="M16.2006 7.13434L14.3506 8.20034C13.841 7.68686 13.2016 7.32122 12.5006 7.14234V5.00034H10.5006V7.14234C9.79961 7.32122 9.16025 7.68686 8.65061 8.20034L6.80061 7.13434L5.80061 8.86634L7.66161 9.93934C7.56002 10.2841 7.50586 10.641 7.50061 11.0003C7.50586 11.3597 7.56002 11.7166 7.66161 12.0613L5.80061 13.1343L6.80061 14.8663L8.65061 13.8003C9.16025 14.3138 9.79961 14.6795 10.5006 14.8583V17.0003H12.5006V14.8583C13.2016 14.6795 13.841 14.3138 14.3506 13.8003L16.2006 14.8663L17.2006 13.1343L15.3436 12.0613C15.4438 11.7164 15.4967 11.3595 15.5006 11.0003C15.4954 10.641 15.4412 10.2841 15.3396 9.93934L17.2006 8.86634L16.2006 7.13434ZM11.5006 13.0003C11.105 13.0003 10.7184 12.883 10.3895 12.6633C10.0606 12.4435 9.80422 12.1312 9.65285 11.7657C9.50147 11.4003 9.46186 10.9981 9.53903 10.6102C9.61621 10.2222 9.80669 9.86583 10.0864 9.58613C10.3661 9.30642 10.7225 9.11594 11.1104 9.03877C11.4984 8.9616 11.9005 9.00121 12.266 9.15258C12.6314 9.30396 12.9438 9.5603 13.1635 9.8892C13.3833 10.2181 13.5006 10.6048 13.5006 11.0003C13.5006 11.5308 13.2899 12.0395 12.9148 12.4146C12.5397 12.7896 12.031 13.0003 11.5006 13.0003ZM23.7726 11.1323C22.877 8.76873 21.712 6.51621 20.3006 4.41934C19.1282 2.83074 17.5464 1.5904 15.724 0.830769C13.9017 0.0711395 11.9072 -0.17925 9.95361 0.10634C8.01534 0.381911 6.18574 1.16978 4.65368 2.38862C3.12161 3.60746 1.94259 5.21311 1.23833 7.0398C0.53407 8.8665 0.330087 10.8481 0.647438 12.7799C0.964789 14.7118 1.79197 16.5239 3.04361 18.0293C3.33867 18.3837 3.50035 18.8302 3.50061 19.2913V24.0003H16.5006V21.0003H18.7476C19.4745 20.9986 20.1763 20.7338 20.723 20.2547C21.2697 19.7756 21.6245 19.1147 21.7216 18.3943L22.1706 15.0003H24.5006V12.7883C24.5006 12.7883 23.9866 11.6223 23.7726 11.1323ZM20.4176 13.0003L19.7396 18.1313C19.7078 18.3719 19.5897 18.5927 19.4072 18.7525C19.2246 18.9124 18.9902 19.0005 18.7476 19.0003H14.5006V22.0003H5.50061V19.2913C5.50008 18.3626 5.17461 17.4633 4.58061 16.7493C3.80631 15.8255 3.22564 14.7554 2.87307 13.6027C2.52051 12.45 2.40326 11.2382 2.52829 10.0392C2.65332 8.84033 3.01808 7.67877 3.60089 6.62361C4.1837 5.56845 4.97267 4.6412 5.92092 3.89698C6.86916 3.15276 7.95734 2.60674 9.12078 2.29138C10.2842 1.97602 11.4992 1.89775 12.6935 2.06121C13.8877 2.22468 15.037 2.62655 16.0729 3.24295C17.1088 3.85934 18.0102 4.67768 18.7236 5.64934C20.0192 7.62182 21.0975 9.72876 21.9396 11.9333C22.0956 12.2903 22.2516 12.6483 22.4076 13.0023L20.4176 13.0003Z" fill="#00A699"/>
</g>
<defs>
<clipPath id="clip0_1307_5580">
<rect width="24" height="24" fill="white" transform="translate(0.5)"/>
</clipPath>
</defs>
</svg>
