<svg width="25" height="24" viewBox="0 0 25 24" fill="none" xmlns="http://www.w3.org/2000/svg">
<g clip-path="url(#clip0_1307_5576)">
<path d="M12.5 0C10.1266 0 7.80655 0.703788 5.83316 2.02236C3.85977 3.34094 2.3217 5.21509 1.41345 7.4078C0.505199 9.60051 0.267559 12.0133 0.730582 14.3411C1.1936 16.6689 2.33649 18.8071 4.01472 20.4853C5.69295 22.1635 7.83115 23.3064 10.1589 23.7694C12.4867 24.2324 14.8995 23.9948 17.0922 23.0866C19.2849 22.1783 21.1591 20.6402 22.4776 18.6668C23.7962 16.6935 24.5 14.3734 24.5 12C24.4966 8.81846 23.2312 5.76821 20.9815 3.51852C18.7318 1.26883 15.6815 0.00344108 12.5 0V0ZM22.5 12C22.5012 13.9597 21.923 15.876 20.838 17.508L19.646 16.315C19.5525 16.2213 19.5 16.0944 19.5 15.962V15C19.5 14.2044 19.1839 13.4413 18.6213 12.8787C18.0587 12.3161 17.2957 12 16.5 12H13.5C13.2348 12 12.9804 11.8946 12.7929 11.7071C12.6054 11.5196 12.5 11.2652 12.5 11V10.5C12.5 10.3674 12.5527 10.2402 12.6465 10.1464C12.7402 10.0527 12.8674 10 13 10C13.663 10 14.2989 9.73661 14.7678 9.26777C15.2366 8.79893 15.5 8.16304 15.5 7.5V6.5C15.5 6.36739 15.5527 6.24022 15.6465 6.14645C15.7402 6.05268 15.8674 6 16 6H17.379C18.0414 5.99812 18.6763 5.73509 19.146 5.268L19.523 4.891C20.4662 5.81908 21.2152 6.92564 21.7263 8.14617C22.2374 9.3667 22.5004 10.6768 22.5 12ZM2.54901 12.963L5.70701 16.121C5.98491 16.4007 6.31559 16.6224 6.67985 16.7733C7.04412 16.9242 7.43472 17.0013 7.82901 17H10.5C10.7652 17 11.0196 17.1054 11.2071 17.2929C11.3946 17.4804 11.5 17.7348 11.5 18V21.949C9.2002 21.7142 7.0524 20.6912 5.42093 19.0533C3.78947 17.4155 2.77479 15.2637 2.54901 12.963ZM13.5 21.949V18C13.5 17.2044 13.1839 16.4413 12.6213 15.8787C12.0587 15.3161 11.2957 15 10.5 15H7.82901C7.69753 15.0001 7.56732 14.9743 7.44583 14.924C7.32434 14.8737 7.21396 14.8 7.12101 14.707L2.66301 10.249C2.94918 8.6222 3.63474 7.09189 4.65818 5.79538C5.68162 4.49887 7.01091 3.47671 8.5268 2.82061C10.0427 2.16452 11.6977 1.89502 13.3435 2.03628C14.9892 2.17755 16.5741 2.72517 17.956 3.63L17.732 3.854C17.6379 3.94683 17.5112 3.99922 17.379 4H16C15.337 4 14.7011 4.26339 14.2322 4.73223C13.7634 5.20107 13.5 5.83696 13.5 6.5V7.5C13.5 7.63261 13.4473 7.75979 13.3536 7.85355C13.2598 7.94732 13.1326 8 13 8C12.337 8 11.7011 8.26339 11.2322 8.73223C10.7634 9.20108 10.5 9.83696 10.5 10.5V11C10.5 11.7957 10.8161 12.5587 11.3787 13.1213C11.9413 13.6839 12.7044 14 13.5 14H16.5C16.7652 14 17.0196 14.1054 17.2071 14.2929C17.3946 14.4804 17.5 14.7348 17.5 15V15.962C17.5019 16.6244 17.7649 17.2593 18.232 17.729L19.569 19.066C17.9405 20.7002 15.7956 21.7191 13.5 21.949Z" fill="#00A699"/>
</g>
<defs>
<clipPath id="clip0_1307_5576">
<rect width="24" height="24" fill="white" transform="translate(0.5)"/>
</clipPath>
</defs>
</svg>
