<svg width="81" height="81" viewBox="0 0 81 81" fill="none" xmlns="http://www.w3.org/2000/svg">
<path d="M10.4453 1H70.4453C75.697 1 79.9453 5.24836 79.9453 10.5V70.5C79.9453 75.7516 75.697 80 70.4453 80H10.4453C5.19368 80 0.945312 75.7516 0.945312 70.5V10.5C0.945312 5.24836 5.19368 1 10.4453 1Z" stroke="#E3EBFC"/>
<path d="M41.2235 42.3611C41.9457 42.3611 42.668 42.0833 43.4457 41.5C44.3624 40.8611 45.168 40.3333 45.168 40.3333L45.4457 40.1389L45.168 39.9444C45.0569 39.8611 32.9735 31.4722 31.7235 30.6667C31.1402 30.25 30.4735 30.1667 29.9457 30.4167C29.4457 30.6667 29.168 31.1944 29.168 31.8333V34.6944L29.2791 34.75C29.3624 34.8056 37.668 40.5833 39.2791 41.6667C39.9457 42.1389 40.5846 42.3611 41.2235 42.3611Z" fill="#356AE6"/>
<path d="M57.4158 37.3333C56.6936 36.8056 30.7769 18.7222 29.6658 17.9444L29.3047 17.6944V22.1389C29.3047 23.5556 30.0547 24.0833 30.9714 24.75C30.9714 24.75 50.8602 38.6111 53.3325 40.3056C50.8602 42.0278 32.138 55 30.9436 55.75C29.5269 56.6944 29.388 57.3056 29.388 58.5833V63.3611C29.388 63.3611 56.8047 43.75 57.388 43.3056C58.638 42.3611 58.9158 41.25 58.9436 40.4444V39.9444C58.9714 38.9444 58.4436 38.0556 57.4158 37.3333Z" fill="#356AE6"/>
</svg>
