<svg width="227" height="335" viewBox="0 0 227 335" fill="none" xmlns="http://www.w3.org/2000/svg">
<path d="M107.351 334.813C48.4517 334.813 0.698659 287.06 0.698659 228.16V123.449C0.698659 64.5497 48.4517 16.7966 107.351 16.7966C166.251 16.7966 214.004 64.5497 214.004 123.449V228.16C214.004 287.06 166.251 334.813 107.351 334.813Z" fill="#00A699" stroke="black" stroke-width="0.37388"/>
<path d="M118.183 320.39C59.1805 320.39 11.3438 272.553 11.3438 213.551V108.84C11.3438 49.8368 59.1805 2 118.183 2C177.186 2 225.023 49.8368 225.023 108.84V213.551C225.023 272.553 177.186 320.39 118.183 320.39Z" stroke="black" stroke-width="3.36492" stroke-miterlimit="10" stroke-linecap="round"/>
<g clip-path="url(#clip0_1309_5765)">
<path d="M113 108C114.78 108 116.52 107.472 118 106.483C119.48 105.494 120.634 104.089 121.315 102.444C121.996 100.799 122.174 98.9899 121.827 97.2441C121.48 95.4982 120.623 93.8946 119.364 92.6359C118.105 91.3772 116.502 90.5201 114.756 90.1728C113.01 89.8255 111.2 90.0038 109.556 90.685C107.911 91.3662 106.506 92.5197 105.517 93.9997C104.528 95.4798 104 97.2199 104 98.9999C104.002 101.386 104.951 103.674 106.639 105.361C108.326 107.049 110.614 107.997 113 108ZM113 92.9999C114.187 92.9999 115.347 93.3518 116.333 94.0111C117.32 94.6704 118.089 95.6074 118.543 96.7038C118.997 97.8001 119.116 99.0065 118.885 100.17C118.653 101.334 118.082 102.403 117.243 103.243C116.404 104.082 115.334 104.653 114.171 104.885C113.007 105.116 111.8 104.997 110.704 104.543C109.608 104.089 108.67 103.32 108.011 102.333C107.352 101.347 107 100.187 107 98.9999C107 97.4086 107.632 95.8825 108.757 94.7572C109.883 93.632 111.409 92.9999 113 92.9999Z" fill="white"/>
<path d="M113 111.001C109.421 111.005 105.989 112.428 103.458 114.959C100.928 117.49 99.504 120.922 99.5 124.501C99.5 124.899 99.658 125.28 99.9393 125.562C100.221 125.843 100.602 126.001 101 126.001C101.398 126.001 101.779 125.843 102.061 125.562C102.342 125.28 102.5 124.899 102.5 124.501C102.5 121.716 103.606 119.045 105.575 117.076C107.545 115.107 110.215 114.001 113 114.001C115.785 114.001 118.455 115.107 120.425 117.076C122.394 119.045 123.5 121.716 123.5 124.501C123.5 124.899 123.658 125.28 123.939 125.562C124.221 125.843 124.602 126.001 125 126.001C125.398 126.001 125.779 125.843 126.061 125.562C126.342 125.28 126.5 124.899 126.5 124.501C126.496 120.922 125.072 117.49 122.542 114.959C120.011 112.428 116.579 111.005 113 111.001Z" fill="white"/>
</g>
<path d="M100.209 172.6H104.049V195H99.6328V177.272L95.4088 178.456L94.3208 174.68L100.209 172.6ZM115.464 179.864C117.789 179.928 119.677 180.685 121.128 182.136C122.578 183.565 123.304 185.4 123.304 187.64C123.304 189.923 122.546 191.8 121.032 193.272C119.517 194.723 117.565 195.448 115.176 195.448C112.786 195.448 110.834 194.723 109.32 193.272C107.826 191.821 107.08 189.944 107.08 187.64C107.08 185.933 107.517 184.429 108.392 183.128L115.368 172.6H120.424L115.464 179.864ZM112.52 190.296C113.224 190.957 114.109 191.288 115.176 191.288C116.242 191.288 117.128 190.957 117.832 190.296C118.557 189.635 118.92 188.749 118.92 187.64C118.92 186.552 118.557 185.677 117.832 185.016C117.128 184.355 116.242 184.024 115.176 184.024C114.109 184.024 113.224 184.355 112.52 185.016C111.816 185.656 111.464 186.531 111.464 187.64C111.464 188.749 111.816 189.635 112.52 190.296ZM33.5726 212.6C35.7273 212.6 37.5406 213.325 39.0126 214.776C40.4846 216.227 41.2206 218.008 41.2206 220.12C41.2206 222.232 40.4846 224.013 39.0126 225.464C37.5406 226.915 35.7273 227.64 33.5726 227.64H29.6366V235H25.2206V212.6H33.5726ZM33.5726 223.512C34.5113 223.512 35.29 223.192 35.9086 222.552C36.5273 221.891 36.8366 221.08 36.8366 220.12C36.8366 219.139 36.5273 218.328 35.9086 217.688C35.29 217.048 34.5113 216.728 33.5726 216.728H29.6366V223.512H33.5726ZM55.0011 219H59.1291V235H55.0011V233.112C53.7638 234.669 52.0251 235.448 49.7851 235.448C47.6518 235.448 45.8171 234.637 44.2811 233.016C42.7665 231.373 42.0091 229.368 42.0091 227C42.0091 224.632 42.7665 222.637 44.2811 221.016C45.8171 219.373 47.6518 218.552 49.7851 218.552C52.0251 218.552 53.7638 219.331 55.0011 220.888V219ZM47.3851 230.264C48.2171 231.096 49.2731 231.512 50.5531 231.512C51.8331 231.512 52.8891 231.096 53.7211 230.264C54.5745 229.411 55.0011 228.323 55.0011 227C55.0011 225.677 54.5745 224.6 53.7211 223.768C52.8891 222.915 51.8331 222.488 50.5531 222.488C49.2731 222.488 48.2171 222.915 47.3851 223.768C46.5531 224.6 46.1371 225.677 46.1371 227C46.1371 228.323 46.5531 229.411 47.3851 230.264ZM67.0004 221.752C67.3844 220.728 68.0137 219.96 68.8884 219.448C69.7844 218.936 70.7764 218.68 71.8644 218.68V223.288C70.6057 223.139 69.475 223.395 68.4724 224.056C67.491 224.717 67.0004 225.816 67.0004 227.352V235H62.8724V219H67.0004V221.752ZM83.8681 222.968H80.2521V229.624C80.2521 230.179 80.3908 230.584 80.6681 230.84C80.9455 231.096 81.3508 231.245 81.8841 231.288C82.4175 231.309 83.0788 231.299 83.8681 231.256V235C81.0308 235.32 79.0255 235.053 77.8521 234.2C76.7001 233.347 76.1241 231.821 76.1241 229.624V222.968H73.3401V219H76.1241V215.768L80.2521 214.52V219H83.8681V222.968ZM88.8266 217.08C88.144 217.08 87.5466 216.835 87.0346 216.344C86.544 215.832 86.2986 215.235 86.2986 214.552C86.2986 213.869 86.544 213.272 87.0346 212.76C87.5466 212.248 88.144 211.992 88.8266 211.992C89.5306 211.992 90.128 212.248 90.6186 212.76C91.1306 213.272 91.3866 213.869 91.3866 214.552C91.3866 215.235 91.1306 215.832 90.6186 216.344C90.128 216.835 89.5306 217.08 88.8266 217.08ZM86.7786 235V219H90.9066V235H86.7786ZM102.301 235.448C99.8902 235.448 97.8742 234.637 96.2529 233.016C94.6529 231.395 93.8529 229.389 93.8529 227C93.8529 224.611 94.6529 222.605 96.2529 220.984C97.8742 219.363 99.8902 218.552 102.301 218.552C103.858 218.552 105.277 218.925 106.557 219.672C107.837 220.419 108.808 221.421 109.469 222.68L105.917 224.76C105.597 224.099 105.106 223.576 104.445 223.192C103.805 222.808 103.08 222.616 102.269 222.616C101.032 222.616 100.008 223.032 99.1969 223.864C98.3862 224.675 97.9809 225.72 97.9809 227C97.9809 228.259 98.3862 229.304 99.1969 230.136C100.008 230.947 101.032 231.352 102.269 231.352C103.101 231.352 103.837 231.171 104.477 230.808C105.138 230.424 105.629 229.901 105.949 229.24L109.533 231.288C108.829 232.547 107.837 233.56 106.557 234.328C105.277 235.075 103.858 235.448 102.301 235.448ZM113.764 217.08C113.081 217.08 112.484 216.835 111.972 216.344C111.481 215.832 111.236 215.235 111.236 214.552C111.236 213.869 111.481 213.272 111.972 212.76C112.484 212.248 113.081 211.992 113.764 211.992C114.468 211.992 115.065 212.248 115.556 212.76C116.068 213.272 116.324 213.869 116.324 214.552C116.324 215.235 116.068 215.832 115.556 216.344C115.065 216.835 114.468 217.08 113.764 217.08ZM111.716 235V219H115.844V235H111.716ZM128.934 218.552C131.089 218.552 132.924 219.373 134.438 221.016C135.974 222.637 136.742 224.632 136.742 227C136.742 229.368 135.974 231.373 134.438 233.016C132.924 234.637 131.089 235.448 128.934 235.448C126.694 235.448 124.966 234.669 123.75 233.112V241.4H119.622V219H123.75V220.888C124.966 219.331 126.694 218.552 128.934 218.552ZM124.998 230.264C125.83 231.096 126.886 231.512 128.166 231.512C129.446 231.512 130.502 231.096 131.334 230.264C132.188 229.411 132.614 228.323 132.614 227C132.614 225.677 132.188 224.6 131.334 223.768C130.502 222.915 129.446 222.488 128.166 222.488C126.886 222.488 125.83 222.915 124.998 223.768C124.166 224.6 123.75 225.677 123.75 227C123.75 228.323 124.166 229.411 124.998 230.264ZM151.814 219H155.942V235H151.814V233.112C150.576 234.669 148.838 235.448 146.598 235.448C144.464 235.448 142.63 234.637 141.094 233.016C139.579 231.373 138.822 229.368 138.822 227C138.822 224.632 139.579 222.637 141.094 221.016C142.63 219.373 144.464 218.552 146.598 218.552C148.838 218.552 150.576 219.331 151.814 220.888V219ZM144.198 230.264C145.03 231.096 146.086 231.512 147.366 231.512C148.646 231.512 149.702 231.096 150.534 230.264C151.387 229.411 151.814 228.323 151.814 227C151.814 225.677 151.387 224.6 150.534 223.768C149.702 222.915 148.646 222.488 147.366 222.488C146.086 222.488 145.03 222.915 144.198 223.768C143.366 224.6 142.95 225.677 142.95 227C142.95 228.323 143.366 229.411 144.198 230.264ZM168.581 218.552C170.33 218.552 171.77 219.139 172.901 220.312C174.053 221.485 174.629 223.107 174.629 225.176V235H170.501V225.688C170.501 224.621 170.213 223.811 169.637 223.256C169.061 222.68 168.293 222.392 167.333 222.392C166.266 222.392 165.413 222.723 164.773 223.384C164.133 224.045 163.813 225.037 163.813 226.36V235H159.685V219H163.813V220.792C164.816 219.299 166.405 218.552 168.581 218.552ZM187.306 222.968H183.69V229.624C183.69 230.179 183.828 230.584 184.106 230.84C184.383 231.096 184.788 231.245 185.322 231.288C185.855 231.309 186.516 231.299 187.306 231.256V235C184.468 235.32 182.463 235.053 181.29 234.2C180.138 233.347 179.562 231.821 179.562 229.624V222.968H176.778V219H179.562V215.768L183.69 214.52V219H187.306V222.968ZM193.68 223.544C193.68 223.971 193.958 224.323 194.512 224.6C195.088 224.856 195.782 225.091 196.592 225.304C197.403 225.496 198.214 225.752 199.024 226.072C199.835 226.371 200.518 226.883 201.072 227.608C201.648 228.333 201.936 229.24 201.936 230.328C201.936 231.971 201.318 233.24 200.08 234.136C198.864 235.011 197.339 235.448 195.504 235.448C192.219 235.448 189.979 234.179 188.784 231.64L192.368 229.624C192.838 231.011 193.883 231.704 195.504 231.704C196.976 231.704 197.712 231.245 197.712 230.328C197.712 229.901 197.424 229.56 196.848 229.304C196.294 229.027 195.611 228.781 194.8 228.568C193.99 228.355 193.179 228.088 192.368 227.768C191.558 227.448 190.864 226.947 190.288 226.264C189.734 225.56 189.456 224.685 189.456 223.64C189.456 222.061 190.032 220.824 191.184 219.928C192.358 219.011 193.808 218.552 195.536 218.552C196.838 218.552 198.022 218.851 199.088 219.448C200.155 220.024 200.998 220.856 201.616 221.944L198.096 223.864C197.584 222.776 196.731 222.232 195.536 222.232C195.003 222.232 194.555 222.349 194.192 222.584C193.851 222.819 193.68 223.139 193.68 223.544Z" fill="white"/>
<defs>
<clipPath id="clip0_1309_5765">
<rect width="36" height="36" fill="white" transform="translate(95 90)"/>
</clipPath>
</defs>
</svg>
