<svg width="48" height="54" viewBox="0 0 48 54" fill="none" xmlns="http://www.w3.org/2000/svg">
<path d="M45.2898 14.1065C43.3703 1.84807 17.7225 5.2325 9.54286 12.8159C1.36326 20.3993 4.62142 28.7854 0.502915 37.1394C-3.61559 45.4935 18.2875 59.9664 39.6568 51.3583C52.4728 49.5223 47.2093 26.3649 45.2898 14.1065Z" fill="#00A699" fill-opacity="0.4"/>
<g clip-path="url(#clip0_1415_2239)">
<path d="M16 16V12H32V16H16ZM10 44C9.46957 44 8.96086 43.7893 8.58579 43.4142C8.21071 43.0391 8 42.5304 8 42V6C8 5.46957 8.21071 4.96086 8.58579 4.58579C8.96086 4.21071 9.46957 4 10 4H40V23C41.4851 23.625 42.8414 24.5202 44 25.64V0H10C8.4087 0 6.88258 0.632141 5.75736 1.75736C4.63214 2.88258 4 4.4087 4 6V42C4 43.5913 4.63214 45.1174 5.75736 46.2426C6.88258 47.3679 8.4087 48 10 48H35C33.2509 47.9998 31.5199 47.6453 29.9116 46.9578C28.3033 46.2703 26.8508 45.2642 25.642 44H10ZM45.086 47.914L39.772 42.6C38.3464 43.5099 36.6913 43.9955 35 44C33.22 44 31.4799 43.4722 29.9999 42.4832C28.5198 41.4943 27.3663 40.0887 26.6851 38.4441C26.0039 36.7996 25.8257 34.99 26.1729 33.2442C26.5202 31.4984 27.3774 29.8947 28.636 28.636C29.8947 27.3774 31.4984 26.5202 33.2442 26.1729C34.99 25.8257 36.7996 26.0039 38.4441 26.6851C40.0887 27.3663 41.4943 28.5198 42.4832 29.9999C43.4722 31.4799 44 33.22 44 35C43.9955 36.6913 43.5099 38.3464 42.6 39.772L47.914 45.086L45.086 47.914ZM35 40C35.9889 40 36.9556 39.7068 37.7779 39.1573C38.6001 38.6079 39.241 37.827 39.6194 36.9134C39.9978 35.9998 40.0969 34.9945 39.9039 34.0245C39.711 33.0546 39.2348 32.1637 38.5355 31.4645C37.8363 30.7652 36.9454 30.289 35.9755 30.0961C35.0055 29.9031 34.0002 30.0022 33.0866 30.3806C32.173 30.759 31.3921 31.3999 30.8427 32.2221C30.2932 33.0444 30 34.0111 30 35C30 36.3261 30.5268 37.5979 31.4645 38.5355C32.4021 39.4732 33.6739 40 35 40Z" fill="black"/>
</g>
<defs>
<clipPath id="clip0_1415_2239">
<rect width="48" height="48" fill="white"/>
</clipPath>
</defs>
</svg>
