<svg width="48" height="60" viewBox="0 0 48 60" fill="none" xmlns="http://www.w3.org/2000/svg">
<path d="M48 45.1807C48 60.4185 31.6061 59.8509 16.3392 59.8509C1.07236 59.8509 0 43.1872 0 27.9494C0 12.7115 16.2911 6 31.558 6C46.8249 6 48 29.9428 48 45.1807Z" fill="#00A699" fill-opacity="0.4"/>
<g clip-path="url(#clip0_1415_4190)">
<path d="M3.75594 10.2423L0.585938 7.07226L3.41394 4.24426L6.58594 7.41426C6.96667 7.77832 7.47316 7.98151 7.99994 7.98151C8.52672 7.98151 9.0332 7.77832 9.41394 7.41426L16.5859 0.244263L19.4139 3.07226L12.2419 10.2423C11.6848 10.7995 11.0233 11.2416 10.2953 11.5432C9.56725 11.8448 8.78695 12 7.99894 12C7.21092 12 6.43062 11.8448 5.7026 11.5432C4.97458 11.2416 4.3131 10.7995 3.75594 10.2423ZM23.9999 10.0003H47.9999V6.00026H23.9999V10.0003ZM7.99994 28.0003C8.78816 28.0025 9.56899 27.8483 10.2972 27.5465C11.0253 27.2447 11.6864 26.8014 12.2419 26.2423L19.4139 19.0723L16.5859 16.2443L9.41394 23.4143C9.0332 23.7783 8.52672 23.9815 7.99994 23.9815C7.47316 23.9815 6.96667 23.7783 6.58594 23.4143L3.41394 20.2443L0.585938 23.0723L3.75594 26.2423C4.31201 26.8013 4.97341 27.2445 5.70189 27.5463C6.43036 27.848 7.21144 28.0023 7.99994 28.0003ZM23.9999 26.0003H47.9999V22.0003H23.9999V26.0003ZM7.99994 44.0003C8.78816 44.0025 9.56899 43.8483 10.2972 43.5465C11.0253 43.2447 11.6864 42.8014 12.2419 42.2423L19.4139 35.0723L16.5859 32.2443L9.41394 39.4143C9.0332 39.7783 8.52672 39.9815 7.99994 39.9815C7.47316 39.9815 6.96667 39.7783 6.58594 39.4143L3.41394 36.2443L0.585938 39.0723L3.75594 42.2423C4.31201 42.8013 4.97341 43.2445 5.70189 43.5463C6.43036 43.848 7.21144 44.0023 7.99994 44.0003ZM23.9999 42.0003H47.9999V38.0003H23.9999V42.0003Z" fill="black"/>
</g>
<defs>
<clipPath id="clip0_1415_4190">
<rect width="48" height="48" fill="white"/>
</clipPath>
</defs>
</svg>
