<svg width="48" height="52" viewBox="0 0 48 52" fill="none" xmlns="http://www.w3.org/2000/svg">
<path d="M47.8555 29.2505C47.8555 42.0914 32.7284 51.6393 19.9182 51.6393C7.10808 51.6393 0 33.6236 0 20.7827C0 7.94183 24.4395 6 37.2497 6C50.0598 6 47.8555 16.4096 47.8555 29.2505Z" fill="#00A699" fill-opacity="0.4"/>
<g clip-path="url(#clip0_1415_1804)">
<path d="M16.0007 40.2979V47.9999H32.0007V40.6299C31.9615 38.9251 32.2859 37.2315 32.9521 35.6617C33.6184 34.092 34.6112 32.6821 35.8647 31.5259C38.6005 29.128 40.5455 25.9573 41.4433 22.4319C42.3411 18.9064 42.1495 15.1917 40.8939 11.7773C39.6383 8.36286 37.3776 5.40904 34.4097 3.30514C31.4418 1.20124 27.9061 0.0460241 24.2685 -0.0082498C20.631 -0.0625237 17.0624 0.986694 14.033 3.00111C11.0037 5.01553 8.65583 7.90059 7.29893 11.276C5.94203 14.6515 5.63976 18.3588 6.43198 21.9095C7.22419 25.4601 9.0737 28.6874 11.7367 31.1659C13.0411 32.3098 14.0937 33.7122 14.8277 35.2842C15.5617 36.8562 15.9612 38.5635 16.0007 40.2979ZM28.0007 43.9999H20.0007V40.2979C20.0007 40.1979 19.9867 40.0979 19.9847 39.9999H28.0327C28.0327 40.2099 28.0007 40.4179 28.0007 40.6299V43.9999ZM10.1207 16.1499C10.418 13.9063 11.2549 11.7682 12.5595 9.9188C13.8642 8.06942 15.5978 6.56391 17.6117 5.53127C19.6257 4.49863 21.86 3.96965 24.1231 3.98965C26.3863 4.00965 28.6109 4.57804 30.6063 5.64611C32.6016 6.71418 34.3083 8.2501 35.5801 10.1222C36.8519 11.9944 37.6508 14.147 37.9084 16.3955C38.166 18.6441 37.8747 20.9216 37.0593 23.0328C36.2439 25.1441 34.9288 27.0262 33.2267 28.5179C31.0007 30.511 29.4066 33.1119 28.6407 35.9999H26.0007V21.6319C27.1665 21.2198 28.1765 20.4575 28.8926 19.4493C29.6086 18.4412 29.9956 17.2365 30.0007 15.9999H26.0007C26.0007 16.5304 25.79 17.0391 25.4149 17.4142C25.0399 17.7892 24.5312 17.9999 24.0007 17.9999C23.4703 17.9999 22.9616 17.7892 22.5865 17.4142C22.2114 17.0391 22.0007 16.5304 22.0007 15.9999H18.0007C18.0059 17.2365 18.3929 18.4412 19.1089 19.4493C19.8249 20.4575 20.8349 21.2198 22.0007 21.6319V35.9999H19.3567C18.4547 33.0184 16.763 30.3363 14.4607 28.2379C12.8198 26.7197 11.5687 24.8285 10.8133 22.7244C10.0578 20.6203 9.82029 18.3652 10.1207 16.1499Z" fill="black"/>
</g>
<defs>
<clipPath id="clip0_1415_1804">
<rect width="48" height="48" fill="white"/>
</clipPath>
</defs>
</svg>
