<svg width="22" height="12" viewBox="0 0 22 12" fill="none" xmlns="http://www.w3.org/2000/svg">
<path d="M0.935764 11.185C1.07521 11.3256 1.24111 11.4372 1.4239 11.5134C1.60669 11.5895 1.80275 11.6287 2.00076 11.6287C2.19878 11.6287 2.39484 11.5895 2.57763 11.5134C2.76042 11.4372 2.92632 11.3256 3.06576 11.185L9.93576 4.31504C10.0752 4.17445 10.2411 4.06286 10.4239 3.9867C10.6067 3.91055 10.8027 3.87134 11.0008 3.87134C11.1988 3.87134 11.3948 3.91055 11.5776 3.9867C11.7604 4.06286 11.9263 4.17445 12.0658 4.31504L18.9358 11.185C19.0752 11.3256 19.2411 11.4372 19.4239 11.5134C19.6067 11.5895 19.8027 11.6287 20.0008 11.6287C20.1988 11.6287 20.3948 11.5895 20.5776 11.5134C20.7604 11.4372 20.9263 11.3256 21.0658 11.185C21.3451 10.904 21.502 10.5238 21.502 10.1275C21.502 9.73125 21.3451 9.35107 21.0658 9.07003L14.1808 2.18504C13.337 1.34234 12.1933 0.869006 11.0008 0.869006C9.80826 0.869006 8.66452 1.34234 7.82076 2.18504L0.935764 9.07003C0.656387 9.35107 0.499573 9.73125 0.499573 10.1275C0.499573 10.5238 0.656387 10.904 0.935764 11.185Z" fill="black"/>
</svg>
