<svg width="24" height="24" viewBox="0 0 24 24" fill="none" xmlns="http://www.w3.org/2000/svg">
<g clip-path="url(#clip0_1100_10527)">
<path d="M22 15.9994V20.9994C22 21.2646 21.8946 21.519 21.7071 21.7065C21.5196 21.894 21.2652 21.9994 21 21.9994H3C2.73478 21.9994 2.48043 21.894 2.29289 21.7065C2.10536 21.519 2 21.2646 2 20.9994V15.9994H0V20.9994C0 21.795 0.31607 22.5581 0.87868 23.1207C1.44129 23.6833 2.20435 23.9994 3 23.9994H21C21.7956 23.9994 22.5587 23.6833 23.1213 23.1207C23.6839 22.5581 24 21.795 24 20.9994V15.9994H22Z" fill="#3777FF"/>
<path d="M11.9668 -0.000232767C11.573 -0.00131837 11.1828 0.0753242 10.8187 0.225302C10.4545 0.37528 10.1236 0.595645 9.84478 0.873767L5.92578 4.79277L7.33978 6.20677L10.9738 2.57377L10.9998 18.9998H12.9998L12.9738 2.58777L16.5928 6.20677L18.0068 4.79277L14.0878 0.873767C13.8092 0.595676 13.4784 0.375322 13.1144 0.225341C12.7504 0.0753607 12.3604 -0.00129599 11.9668 -0.000232767Z" fill="#3777FF"/>
</g>
<defs>
<clipPath id="clip0_1100_10527">
<rect width="24" height="24" fill="white"/>
</clipPath>
</defs>
</svg>
