<svg width="52" height="51" viewBox="0 0 52 51" fill="none" xmlns="http://www.w3.org/2000/svg">
<g clip-path="url(#clip0_1093_6561)">
<path d="M26 0C20.9566 0 16.0264 1.49555 11.833 4.29753C7.63952 7.0995 4.37112 11.0821 2.44108 15.7416C0.511049 20.4011 0.00606367 25.5283 0.989987 30.4748C1.97391 35.4213 4.40255 39.965 7.96879 43.5312C11.535 47.0975 16.0787 49.5261 21.0252 50.51C25.9717 51.4939 31.0989 50.989 35.7584 49.0589C40.418 47.1289 44.4005 43.8605 47.2025 39.667C50.0045 35.4736 51.5 30.5434 51.5 25.5C51.4927 18.7392 48.8038 12.2574 44.0232 7.47685C39.2426 2.69626 32.7608 0.0073123 26 0V0ZM47.25 25.5C47.2525 29.6644 46.0238 33.7366 43.7183 37.2045L41.1853 34.6694C40.9866 34.4703 40.8751 34.2005 40.875 33.9193V31.875C40.875 30.1842 40.2034 28.5627 39.0078 27.3672C37.8123 26.1717 36.1908 25.5 34.5 25.5H28.125C27.5614 25.5 27.0209 25.2761 26.6224 24.8776C26.2239 24.4791 26 23.9386 26 23.375V22.3125C26 22.0307 26.112 21.7605 26.3112 21.5612C26.5105 21.3619 26.7807 21.25 27.0625 21.25C28.4715 21.25 29.8227 20.6903 30.819 19.694C31.8153 18.6977 32.375 17.3465 32.375 15.9375V13.8125C32.375 13.5307 32.487 13.2605 32.6862 13.0612C32.8855 12.8619 33.1557 12.75 33.4375 12.75H36.3679C37.7755 12.746 39.1247 12.1871 40.1228 11.1945L40.9239 10.3934C42.9282 12.3655 44.5198 14.717 45.6059 17.3106C46.692 19.9042 47.2509 22.6881 47.25 25.5ZM4.85414 27.5464L11.5649 34.2571C12.1554 34.8515 12.8581 35.3226 13.6322 35.6433C14.4063 35.9639 15.2363 36.1277 16.0741 36.125H21.75C22.3136 36.125 22.8541 36.3489 23.2526 36.7474C23.6511 37.1459 23.875 37.6864 23.875 38.25V46.6416C18.9879 46.1428 14.4239 43.9687 10.957 40.4883C7.49012 37.0079 5.33392 32.4354 4.85414 27.5464ZM28.125 46.6416V38.25C28.125 36.5592 27.4534 34.9377 26.2578 33.7422C25.0623 32.5467 23.4408 31.875 21.75 31.875H16.0741C15.7947 31.8752 15.518 31.8203 15.2599 31.7135C15.0017 31.6067 14.7672 31.45 14.5696 31.2524L5.09639 21.7791C5.70451 18.3222 7.16133 15.0703 9.33613 12.3152C11.5109 9.56009 14.3357 7.38801 17.5569 5.9938C20.7782 4.5996 24.2952 4.02691 27.7924 4.3271C31.2895 4.62729 34.6575 5.79098 37.594 7.71375L37.118 8.18975C36.918 8.38701 36.6488 8.49834 36.3679 8.5H33.4375C32.0285 8.5 30.6773 9.05971 29.681 10.056C28.6847 11.0523 28.125 12.4035 28.125 13.8125V15.9375C28.125 16.2193 28.0131 16.4895 27.8138 16.6888C27.6146 16.8881 27.3443 17 27.0625 17C25.6535 17 24.3023 17.5597 23.306 18.556C22.3097 19.5523 21.75 20.9035 21.75 22.3125V23.375C21.75 25.0658 22.4217 26.6873 23.6172 27.8828C24.8127 29.0784 26.4343 29.75 28.125 29.75H34.5C35.0636 29.75 35.6041 29.9739 36.0026 30.3724C36.4011 30.7709 36.625 31.3114 36.625 31.875V33.9193C36.629 35.3268 37.188 36.6761 38.1805 37.6741L41.0216 40.5153C37.561 43.9879 33.0032 46.153 28.125 46.6416Z" fill="#00A699"/>
</g>
<defs>
<clipPath id="clip0_1093_6561">
<rect width="51" height="51" fill="white" transform="translate(0.5)"/>
</clipPath>
</defs>
</svg>
